<svg xmlns="http://www.w3.org/2000/svg" viewBox="0 0 32 32">
  <rect width="32" height="32" rx="8" fill="#6ee7b7"/>
  <path d="M4 6 L4 26 L7 26 L7 17.5 L12.5 17.5 L12.5 14.8 L7 14.8 L7 8 L14 8 L14 6 Z" fill="#0a0a0a"/>
  <path d="M14 6 L17.5 6 L20.8 11 L24 6 L27.5 6 L21.8 14 L27 22 L23.5 22 L20.2 17 L16.8 22 L13.5 22 L18.8 14 Z" fill="#0a0a0a"/>
  <path d="M18.5 6 L26 6 L26 13" stroke="#0a0a0a" stroke-width="1.8" fill="none" stroke-linecap="round"/>
  <path d="M18.5 6 L26 6 L26 13 L28 11.5 L25.5 15.5 Z" fill="#0a0a0a"/>
</svg>
